<svg version="1.1" viewBox="0.0 0.0 955.9265091863517 305.1706036745407" fill="none" stroke="none" stroke-linecap="square" stroke-miterlimit="10" xmlns:xlink="http://www.w3.org/1999/xlink" xmlns="http://www.w3.org/2000/svg"><clipPath id="p.0"><path d="m0 0l955.9265 0l0 305.1706l-955.9265 0l0 -305.1706z" clip-rule="nonzero"/></clipPath><g clip-path="url(#p.0)"><path fill="#000000" fill-opacity="0.0" d="m0 0l955.9265 0l0 305.1706l-955.9265 0z" fill-rule="evenodd"/><path fill="#000000" fill-opacity="0.0" d="m646.2598 175.2126c22.771667 0 34.15747 14.015747 45.543335 28.031494c11.385803 14.015747 22.771667 28.031494 45.543274 28.031494" fill-rule="evenodd"/><path stroke="#cfe2f3" stroke-width="4.0" stroke-linejoin="round" stroke-linecap="butt" d="m646.2598 175.2126c22.771667 0 34.15747 14.015747 45.543335 28.031494c5.692871 7.0078735 11.385803 14.015747 18.501953 19.271652c0.88952637 0.6569824 1.8012695 1.2866058 2.738037 1.8854218c0.23425293 0.14970398 0.4699707 0.29748535 0.7073364 0.44328308l0.40698242 0.2448883" fill-rule="evenodd"/><path fill="#cfe2f3" stroke="#cfe2f3" stroke-width="4.0" stroke-linecap="butt" d="m712.45447 231.473l19.242004 -1.7046967l-15.835999 -11.062653z" fill-rule="evenodd"/><path fill="#000000" fill-opacity="0.0" d="m646.25854 175.2126c22.771667 0 34.15747 -14.015747 45.543274 -28.031494c11.385864 -14.015747 22.771667 -28.031502 45.543335 -28.031502" fill-rule="evenodd"/><path stroke="#6fa8dc" stroke-width="4.0" stroke-linejoin="round" stroke-linecap="butt" d="m646.25854 175.2126c22.771667 0 34.15747 -14.015747 45.543274 -28.031494c5.692932 -7.0078735 11.385864 -14.015747 18.502014 -19.27166c0.88946533 -0.6569824 1.8012085 -1.2865982 2.737976 -1.8854141c0.23425293 -0.14971161 0.47003174 -0.29749298 0.70739746 -0.4432907l0.40698242 -0.2448883" fill-rule="evenodd"/><path fill="#6fa8dc" stroke="#6fa8dc" stroke-width="4.0" stroke-linecap="butt" d="m715.85913 131.71953l15.835999 -11.062637l-19.242004 -1.7047043z" fill-rule="evenodd"/><path fill="#000000" fill-opacity="0.0" d="m436.5455 175.2126l53.165344 0" fill-rule="evenodd"/><path stroke="#6aa84f" stroke-width="4.0" stroke-linejoin="round" stroke-linecap="butt" d="m436.54547 175.2126l29.165375 0" fill-rule="evenodd"/><path fill="#6aa84f" stroke="#6aa84f" stroke-width="4.0" stroke-linecap="butt" d="m465.71085 181.81953l18.152374 -6.6069336l-18.152374 -6.6069336z" fill-rule="evenodd"/><path fill="#000000" fill-opacity="0.0" d="m822.0853 205.28871l0 -57.417328" fill-rule="evenodd"/><path stroke="#6fa8dc" stroke-width="4.0" stroke-linejoin="round" stroke-linecap="butt" d="m822.0853 205.28871l0 -33.417328" fill-rule="evenodd"/><path fill="#6fa8dc" stroke="#6fa8dc" stroke-width="4.0" stroke-linecap="butt" d="m828.69226 171.87138l-6.6069336 -18.15239l-6.6069336 18.15239z" fill-rule="evenodd"/><g filter="url(#shadowFilter-p.1)"><use xlink:href="#p.1" transform="matrix(1.0 0.0 0.0 1.0 0.0 6.0)"/></g><defs><filter id="shadowFilter-p.1" filterUnits="userSpaceOnUse"><feGaussianBlur in="SourceAlpha" stdDeviation="2.0" result="blur"/><feComponentTransfer in="blur" color-interpolation-filters="sRGB"><feFuncR type="linear" slope="0" intercept="0.0"/><feFuncG type="linear" slope="0" intercept="0.0"/><feFuncB type="linear" slope="0" intercept="0.0"/><feFuncA type="linear" slope="0.5" intercept="0"/></feComponentTransfer></filter></defs><g id="p.1"><path fill="#b6d7a8" d="m42.103676 203.53311l0 0c0 -8.190216 6.639477 -14.829697 14.829693 -14.829697l129.33275 0c3.933075 0 7.705063 1.5624084 10.486176 4.343521c2.7810974 2.7810974 4.343506 6.5530853 4.343506 10.486176l0 59.316986c0 8.190216 -6.6394806 14.829681 -14.829681 14.829681l-129.33275 0c-8.190216 0 -14.829693 -6.6394653 -14.829693 -14.829681z" fill-rule="evenodd"/></g><path fill="#000000" fill-opacity="0.0" d="m51.98819 192.99213l138.3937 0l0 81.38583l-138.3937 0z" fill-rule="evenodd"/><path fill="#000000" d="m72.32346 204.80275l2.03125 0l3.234375 15.109375l-2.0 0l-0.6875 -3.8125l-3.078125 0l-0.734375 3.8125l-1.96875 0l3.203125 -15.109375zm2.296875 9.796875l-1.265625 -6.8125l-1.25 6.8125l2.515625 0zm5.882004 5.46875q-0.890625 0 -1.265625 -0.640625q-0.359375 -0.640625 -0.359375 -1.5625l0 -8.734375l1.984375 0l0 8.125q0 0.625 0.1875 0.9375q0.1875 0.296875 0.671875 0.296875q0.609375 0 1.40625 -0.671875l0 -8.6875l2.0 0l0 10.78125l-2.0 0l0 -1.0625q-1.28125 1.21875 -2.625 1.21875zm9.5212555 0q-2.328125 0 -2.328125 -2.578125l0 -7.03125l-1.140625 0l0 -1.328125l1.140625 0l0 -3.15625l2.0 0l0 3.15625l1.734375 0l0 1.328125l-1.734375 0l0 6.890625q0 0.65625 0.203125 0.921875q0.203125 0.265625 0.78125 0.265625q0.375 0 0.734375 -0.0625l0 1.46875q-0.75 0.125 -1.390625 0.125zm5.8398743 0q-1.71875 0 -2.4375 -1.015625q-0.703125 -1.03125 -0.703125 -2.96875l0 -3.125q0 -1.953125 0.703125 -2.96875q0.71875 -1.015625 2.4375 -1.015625q1.703125 0 2.421875 1.015625q0.71875 1.015625 0.71875 2.96875l0 3.125q0 1.9375 -0.71875 2.96875q-0.71875 1.015625 -2.421875 1.015625zm0 -1.484375q0.546875 0 0.78125 -0.3125q0.25 -0.3125 0.296875 -0.78125q0.0625 -0.46875 0.0625 -1.265625l0 -3.390625q0 -0.796875 -0.0625 -1.265625q-0.046875 -0.484375 -0.296875 -0.796875q-0.234375 -0.3125 -0.78125 -0.3125q-0.53125 0 -0.796875 0.3125q-0.25 0.3125 -0.3125 0.796875q-0.046875 0.46875 -0.046875 1.265625l0 3.390625q0 0.796875 0.046875 1.265625q0.0625 0.46875 0.3125 0.78125q0.265625 0.3125 0.796875 0.3125zm4.8820343 -5.046875l4.15625 0l0 1.5l-4.15625 0l0 -1.5zm8.879288 9.71875q-1.578125 0 -2.515625 -0.5q-0.921875 -0.5 -0.921875 -1.53125q0 -0.71875 0.4375 -1.25q0.4375 -0.515625 1.109375 -0.828125q-0.5 -0.15625 -0.78125 -0.46875q-0.265625 -0.3125 -0.265625 -0.6875q0 -0.5625 0.28125 -0.96875q0.28125 -0.40625 0.921875 -0.984375q-0.640625 -0.484375 -0.953125 -1.21875q-0.296875 -0.75 -0.296875 -2.0q0 -1.875 0.765625 -2.859375q0.78125 -0.984375 2.265625 -0.984375q0.859375 0 1.390625 0.3125q0.546875 0.296875 0.828125 0.890625q0.140625 -0.203125 0.546875 -0.546875q0.421875 -0.359375 0.90625 -0.578125l0.296875 -0.125l0.515625 1.28125q-0.375 0.078125 -1.046875 0.328125q-0.65625 0.234375 -0.78125 0.359375q0.125 0.34375 0.21875 0.9375q0.109375 0.59375 0.109375 1.046875q0 1.765625 -0.6875 2.75q-0.6875 0.984375 -2.296875 0.984375q-0.5 0 -1.03125 -0.140625q-0.34375 0.53125 -0.34375 0.828125q0 0.203125 0.203125 0.328125q0.21875 0.109375 0.6875 0.15625l1.6875 0.140625q1.265625 0.125 1.875 0.78125q0.625 0.640625 0.625 1.859375q0 2.6875 -3.75 2.6875zm0.046875 -8.046875q0.8125 0 1.046875 -0.5625q0.25 -0.5625 0.25 -1.828125q0 -1.28125 -0.25 -1.859375q-0.234375 -0.59375 -1.03125 -0.59375q-0.78125 0 -1.046875 0.59375q-0.265625 0.578125 -0.265625 1.859375q0 1.15625 0.265625 1.78125q0.265625 0.609375 1.03125 0.609375zm0.09375 6.46875q1.0625 0 1.5625 -0.25q0.515625 -0.25 0.515625 -0.8125q0 -0.515625 -0.328125 -0.765625q-0.3125 -0.25 -1.15625 -0.328125l-1.6875 -0.15625q-0.390625 0.390625 -0.609375 0.6875q-0.203125 0.3125 -0.203125 0.65625q0 0.515625 0.421875 0.734375q0.421875 0.234375 1.484375 0.234375zm8.162346 -1.609375q-1.25 0 -1.9531326 -0.46875q-0.6875 -0.484375 -0.96875 -1.421875q-0.28125 -0.9375 -0.28125 -2.421875l0 -2.46875q0 -2.234375 0.703125 -3.265625q0.7031326 -1.046875 2.5000076 -1.046875q1.296875 0 1.953125 0.546875q0.671875 0.546875 0.875 1.53125q0.21875 0.96875 0.21875 2.625l0 0.875l-4.25 0l0 2.171875q0 0.984375 0.28125 1.421875q0.296875 0.4375 0.9375 0.4375q0.625 0 0.84375 -0.4375q0.234375 -0.4375 0.234375 -1.328125l0 -0.65625l1.9375 0l0 0.40625q0 1.703125 -0.734375 2.609375q-0.71875 0.890625 -2.296875 0.890625zm1.09375 -6.59375l0 -0.96875q0 -1.09375 -0.21875 -1.5625q-0.203125 -0.484375 -0.90625 -0.484375q-0.484375 0 -0.734375 0.21875q-0.25 0.21875 -0.34375 0.734375q-0.09375 0.515625 -0.09375 1.484375l0 0.578125l2.296875 0zm3.7605286 -4.34375l2.0 0l0 1.0625q1.296875 -1.21875 2.640625 -1.21875q0.875 0 1.234375 0.640625q0.375 0.640625 0.375 1.5625l0 8.734375l-1.984375 0l0 -8.15625q0 -0.609375 -0.1875 -0.90625q-0.1875 -0.296875 -0.671875 -0.296875q-0.59375 0 -1.40625 0.671875l0 8.6875l-2.0 0l0 -10.78125zm11.190094 10.9375q-1.25 0 -1.953125 -0.46875q-0.6875 -0.484375 -0.96875 -1.421875q-0.28125 -0.9375 -0.28125 -2.421875l0 -2.46875q0 -2.234375 0.703125 -3.265625q0.703125 -1.046875 2.5 -1.046875q1.296875 0 1.953125 0.546875q0.671875 0.546875 0.875 1.53125q0.21875 0.96875 0.21875 2.625l0 0.875l-4.25 0l0 2.171875q0 0.984375 0.28125 1.421875q0.296875 0.4375 0.9375 0.4375q0.625 0 0.84375 -0.4375q0.234375 -0.4375 0.234375 -1.328125l0 -0.65625l1.9375 0l0 0.40625q0 1.703125 -0.734375 2.609375q-0.71875 0.890625 -2.296875 0.890625zm1.09375 -6.59375l0 -0.96875q0 -1.09375 -0.21875 -1.5625q-0.203125 -0.484375 -0.90625 -0.484375q-0.484375 0 -0.734375 0.21875q-0.25 0.21875 -0.34375 0.734375q-0.09375 0.515625 -0.09375 1.484375l0 0.578125l2.296875 0zm3.8230286 -4.34375l2.0 0l0 1.53125q0.5625 -0.921875 1.140625 -1.28125q0.59375 -0.375 1.25 -0.375q0.15625 0 0.3125 0.015625l0 2.203125q-0.59375 -0.234375 -1.09375 -0.234375q-0.5 0 -0.875 0.234375q-0.375 0.234375 -0.734375 0.8125l0 7.875l-2.0 0l0 -10.78125zm7.8792877 10.9375q-0.625 0 -1.125 -0.359375q-0.484375 -0.359375 -0.765625 -0.9375q-0.28125 -0.578125 -0.28125 -1.203125q0 -1.28125 0.53125 -2.0625q0.546875 -0.796875 1.390625 -1.265625q0.84375 -0.46875 2.328125 -1.0625l0 -0.765625q0 -1.0625 -0.21875 -1.5q-0.203125 -0.4375 -0.859375 -0.4375q-1.140625 0 -1.140625 1.53125l0 0.53125l-1.96875 -0.0625q0.03125 -1.796875 0.8125 -2.640625q0.78125 -0.859375 2.421875 -0.859375q1.5625 0 2.25 0.859375q0.703125 0.84375 0.703125 2.5625l0 4.921875q0 1.21875 0.1875 2.59375l-1.828125 0q-0.203125 -1.0625 -0.265625 -1.578125q-0.21875 0.71875 -0.765625 1.234375q-0.546875 0.5 -1.40625 0.5zm0.78125 -1.71875q0.390625 0 0.765625 -0.3125q0.375 -0.3125 0.53125 -0.59375l0 -3.046875q-0.796875 0.4375 -1.234375 0.765625q-0.4375 0.328125 -0.734375 0.765625q-0.28125 0.421875 -0.28125 1.015625q0 0.671875 0.234375 1.046875q0.25 0.359375 0.71875 0.359375zm8.088196 1.71875q-2.328125 0 -2.328125 -2.578125l0 -7.03125l-1.140625 0l0 -1.328125l1.140625 0l0 -3.15625l2.0 0l0 3.15625l1.734375 0l0 1.328125l-1.734375 0l0 6.890625q0 0.65625 0.203125 0.921875q0.203125 0.265625 0.78125 0.265625q0.375 0 0.734375 -0.0625l0 1.46875q-0.75 0.125 -1.390625 0.125zm5.8711243 0q-1.25 0 -1.953125 -0.46875q-0.6875 -0.484375 -0.96875 -1.421875q-0.28125 -0.9375 -0.28125 -2.421875l0 -2.46875q0 -2.234375 0.703125 -3.265625q0.703125 -1.046875 2.5 -1.046875q1.296875 0 1.953125 0.546875q0.671875 0.546875 0.875 1.53125q0.21875 0.96875 0.21875 2.625l0 0.875l-4.25 0l0 2.171875q0 0.984375 0.28125 1.421875q0.296875 0.4375 0.9375 0.4375q0.625 0 0.84375 -0.4375q0.234375 -0.4375 0.234375 -1.328125l0 -0.65625l1.9375 0l0 0.40625q0 1.703125 -0.734375 2.609375q-0.71875 0.890625 -2.296875 0.890625zm1.09375 -6.59375l0 -0.96875q0 -1.09375 -0.21875 -1.5625q-0.203125 -0.484375 -0.90625 -0.484375q-0.484375 0 -0.734375 0.21875q-0.25 0.21875 -0.34375 0.734375q-0.09375 0.515625 -0.09375 1.484375l0 0.578125l2.296875 0zm6.2605286 6.59375q-1.390625 0 -2.046875 -1.015625q-0.65625 -1.03125 -0.65625 -3.375l0 -2.09375q0 -2.140625 0.5625 -3.375q0.578125 -1.234375 2.09375 -1.234375q0.953125 0 1.796875 0.84375l0 -5.015625l1.984375 0l0 15.109375l-1.984375 0l0 -0.6875q-0.796875 0.84375 -1.75 0.84375zm0.515625 -1.578125q0.59375 0 1.234375 -0.40625l0 -7.078125q-0.703125 -0.453125 -1.28125 -0.453125q-1.171875 0 -1.171875 2.25l0 3.046875q0 1.296875 0.234375 1.96875q0.25 0.671875 0.984375 0.671875z" fill-rule="nonzero"/><path fill="#000000" d="m78.90565 242.084q-1.90625 0 -2.90625 -1.171875q-0.984375 -1.1875 -1.09375 -3.234375l1.859375 -0.5q0.09375 1.453125 0.5625 2.34375q0.484375 0.890625 1.578125 0.890625q0.828125 0 1.25 -0.453125q0.421875 -0.453125 0.421875 -1.3125q0 -0.9375 -0.40625 -1.546875q-0.390625 -0.609375 -1.25 -1.359375l-2.53125 -2.234375q-0.765625 -0.671875 -1.109375 -1.453125q-0.34375 -0.78125 -0.34375 -1.890625q0 -1.65625 0.953125 -2.5625q0.953125 -0.921875 2.59375 -0.921875q1.78125 0 2.6875 0.953125q0.921875 0.9375 1.109375 2.9375l-1.78125 0.484375q-0.09375 -1.328125 -0.515625 -2.046875q-0.421875 -0.71875 -1.5 -0.71875q-0.8125 0 -1.234375 0.421875q-0.421875 0.421875 -0.421875 1.25q0 0.671875 0.21875 1.125q0.21875 0.453125 0.765625 0.921875l2.546875 2.234375q1.0 0.875 1.578125 1.90625q0.59375 1.03125 0.59375 2.328125q0 1.671875 -1.015625 2.640625q-1.0 0.96875 -2.609375 0.96875zm7.965027 -0.015625q-2.328125 0 -2.328125 -2.578125l0 -7.03125l-1.140625 0l0 -1.328125l1.140625 0l0 -3.15625l2.0 0l0 3.15625l1.734375 0l0 1.328125l-1.734375 0l0 6.890625q0 0.65625 0.203125 0.921875q0.203125 0.265625 0.78125 0.265625q0.375 0 0.734375 -0.0625l0 1.46875q-0.75 0.125 -1.390625 0.125zm4.8242493 0q-0.625 0 -1.125 -0.359375q-0.484375 -0.359375 -0.765625 -0.9375q-0.28125 -0.578125 -0.28125 -1.203125q0 -1.28125 0.53125 -2.0625q0.546875 -0.796875 1.390625 -1.265625q0.84375 -0.46875 2.328125 -1.0625l0 -0.765625q0 -1.0625 -0.21875 -1.5q-0.203125 -0.4375 -0.859375 -0.4375q-1.140625 0 -1.140625 1.53125l0 0.53125l-1.96875 -0.0625q0.03125 -1.796875 0.8125 -2.640625q0.78125 -0.859375 2.421875 -0.859375q1.5625 0 2.25 0.859375q0.703125 0.84375 0.703125 2.5625l0 4.921875q0 1.21875 0.1875 2.59375l-1.828125 0q-0.203125 -1.0625 -0.265625 -1.578125q-0.21875 0.71875 -0.765625 1.234375q-0.546875 0.5 -1.40625 0.5zm0.78125 -1.71875q0.390625 0 0.765625 -0.3125q0.375 -0.3125 0.53125 -0.59375l0 -3.046875q-0.796875 0.4375 -1.234375 0.765625q-0.4375 0.328125 -0.734375 0.765625q-0.28125 0.421875 -0.28125 1.015625q0 0.671875 0.234375 1.046875q0.25 0.359375 0.71875 0.359375zm5.275696 -9.21875l2.0 0l0 1.53125q0.5625 -0.921875 1.140625 -1.28125q0.59375 -0.375 1.25 -0.375q0.15625 0 0.3125 0.015625l0 2.203125q-0.59375 -0.234375 -1.09375 -0.234375q-0.5 0 -0.875 0.234375q-0.375 0.234375 -0.734375 0.8125l0 7.875l-2.0 0l0 -10.78125zm8.801163 10.9375q-2.328125 0 -2.328125 -2.578125l0 -7.03125l-1.140625 0l0 -1.328125l1.140625 0l0 -3.15625l2.0 0l0 3.15625l1.734375 0l0 1.328125l-1.734375 0l0 6.890625q0 0.65625 0.203125 0.921875q0.203125 0.265625 0.78125 0.265625q0.375 0 0.734375 -0.0625l0 1.46875q-0.75 0.125 -1.390625 0.125zm4.4336243 0q-0.890625 0 -1.265625 -0.640625q-0.359375 -0.640625 -0.359375 -1.5625l0 -8.734375l1.984375 0l0 8.125q0 0.625 0.1875 0.9375q0.1875 0.296875 0.671875 0.296875q0.609375 0 1.40625 -0.671875l0 -8.6875l2.0 0l0 10.78125l-2.0 0l0 -1.0625q-1.28125 1.21875 -2.625 1.21875zm6.646263 -10.9375l2.0 0l0 0.859375q0.875 -1.015625 2.0625 -1.015625q1.46875 0 1.953125 1.265625q0.5 1.265625 0.5 2.78125l0 2.625q0 1.96875 -0.609375 3.203125q-0.59375 1.21875 -2.078125 1.21875q-0.953125 0 -1.828125 -0.953125l0 4.34375l-2.0 0l0 -14.328125zm3.4375 9.359375q0.6875 0 0.875 -0.6875q0.203125 -0.703125 0.203125 -2.15625l0 -2.625q0 -1.1875 -0.21875 -1.828125q-0.21875 -0.640625 -0.9375 -0.640625q-0.6875 0 -1.359375 0.546875l0 6.90625q0.65625 0.484375 1.4375 0.484375zm11.655472 1.578125q-1.296875 0 -2.109375 -0.828125q-0.8125 -0.828125 -0.921875 -2.203125l1.65625 -0.5q0.15625 1.046875 0.515625 1.546875q0.359375 0.5 1.03125 0.5q0.53125 0 0.8125 -0.296875q0.296875 -0.3125 0.296875 -0.84375q0 -0.453125 -0.21875 -0.828125q-0.203125 -0.375 -0.65625 -0.765625l-1.859375 -1.59375q-0.625 -0.53125 -0.96875 -1.140625q-0.34375 -0.609375 -0.34375 -1.484375q0 -1.25 0.734375 -1.953125q0.75 -0.703125 2.03125 -0.703125q1.234375 0 1.9375 0.796875q0.703125 0.796875 0.8125 2.046875l-1.34375 0.5q-0.125 -0.90625 -0.4375 -1.375q-0.296875 -0.484375 -0.890625 -0.484375q-0.484375 0 -0.78125 0.3125q-0.28125 0.3125 -0.28125 0.78125q0 0.59375 0.546875 1.078125l1.90625 1.765625q0.71875 0.671875 1.125 1.328125q0.40625 0.640625 0.40625 1.578125q0 1.34375 -0.8125 2.0625q-0.796875 0.703125 -2.1875 0.703125zm7.4305573 0q-1.265625 0 -1.953125 -0.515625q-0.6875 -0.515625 -0.953125 -1.4375q-0.25 -0.921875 -0.25 -2.34375l0 -2.484375q0 -1.453125 0.25 -2.375q0.265625 -0.9375 0.953125 -1.4375q0.6875 -0.5 1.953125 -0.5q1.15625 0 1.796875 0.375q0.65625 0.375 0.90625 1.109375q0.25 0.734375 0.25 1.921875l0 0.625l-1.8125 0l0 -0.65625q0 -1.0625 -0.234375 -1.46875q-0.234375 -0.421875 -0.890625 -0.421875q-0.5 0 -0.75 0.21875q-0.234375 0.21875 -0.328125 0.734375q-0.09375 0.5 -0.09375 1.46875l0 3.390625q0 0.9375 0.109375 1.4375q0.109375 0.484375 0.359375 0.6875q0.265625 0.1875 0.734375 0.1875q0.6875 0 0.890625 -0.453125q0.203125 -0.453125 0.203125 -1.40625l0 -0.875l1.8125 0l0 0.734375q0 1.765625 -0.65625 2.625q-0.640625 0.859375 -2.296875 0.859375zm4.7770996 -10.9375l2.0 0l0 1.53125q0.5625 -0.921875 1.140625 -1.28125q0.59375 -0.375 1.25 -0.375q0.15625 0 0.3125 0.015625l0 2.203125q-0.59375 -0.234375 -1.09375 -0.234375q-0.5 0 -0.875 0.234375q-0.375 0.234375 -0.734375 0.8125l0 7.875l-2.0 0l0 -10.78125zm6.0667877 -3.703125l2.0 0l0 2.09375l-2.0 0l0 -2.09375zm0 3.703125l2.0 0l0 10.78125l-2.0 0l0 -10.78125zm4.131653 0l2.0 0l0 0.859375q0.875 -1.015625 2.0625 -1.015625q1.46875 0 1.953125 1.265625q0.5 1.265625 0.5 2.78125l0 2.625q0 1.96875 -0.609375 3.203125q-0.59375 1.21875 -2.078125 1.21875q-0.953125 0 -1.828125 -0.953125l0 4.34375l-2.0 0l0 -14.328125zm3.4375 9.359375q0.6875 0 0.875 -0.6875q0.203125 -0.703125 0.203125 -2.15625l0 -2.625q0 -1.1875 -0.21875 -1.828125q-0.21875 -0.640625 -0.9375 -0.640625q-0.6875 0 -1.359375 0.546875l0 6.90625q0.65625 0.484375 1.4375 0.484375zm7.758194 1.578125q-2.328125 0 -2.328125 -2.578125l0 -7.03125l-1.140625 0l0 -1.328125l1.140625 0l0 -3.15625l2.0 0l0 3.15625l1.734375 0l0 1.328125l-1.734375 0l0 6.890625q0 0.65625 0.203125 0.921875q0.203125 0.265625 0.78125 0.265625q0.375 0 0.734375 -0.0625l0 1.46875q-0.75 0.125 -1.390625 0.125z" fill-rule="nonzero"/><g filter="url(#shadowFilter-p.2)"><use xlink:href="#p.2" transform="matrix(1.0 0.0 0.0 1.0 0.0 5.0)"/></g><defs><filter id="shadowFilter-p.2" filterUnits="userSpaceOnUse"><feGaussianBlur in="SourceAlpha" stdDeviation="2.0" result="blur"/><feComponentTransfer in="blur" color-interpolation-filters="sRGB"><feFuncR type="linear" slope="0" intercept="0.0"/><feFuncG type="linear" slope="0" intercept="0.0"/><feFuncB type="linear" slope="0" intercept="0.0"/><feFuncA type="linear" slope="0.5" intercept="0"/></feComponentTransfer></filter></defs><g id="p.2"><path fill="#b6d7a8" d="m298.2454 144.56723l0 0c0 -8.190216 6.639496 -14.829697 14.829712 -14.829697l129.33273 0c3.933075 0 7.705078 1.5624084 10.486176 4.343521c2.7810974 2.7810974 4.343506 6.5530853 4.343506 10.486176l0 59.316986c0 8.190216 -6.6394653 14.829697 -14.829681 14.829697l-129.33273 0c-8.190216 0 -14.829712 -6.6394806 -14.829712 -14.829697z" fill-rule="evenodd"/></g><path fill="#000000" fill-opacity="0.0" d="m308.1299 134.02625l138.3937 0l0 81.38583l-138.3937 0z" fill-rule="evenodd"/><path fill="#000000" d="m335.15085 145.83687l3.75 0q1.96875 0 2.84375 1.0625q0.890625 1.0625 0.890625 3.109375q0 1.859375 -0.953125 2.890625q-0.953125 1.015625 -2.765625 1.015625l-1.65625 0l0 7.03125l-2.109375 0l0 -15.109375zm3.078125 6.5625q0.9375 0 1.453125 -0.203125q0.515625 -0.203125 0.734375 -0.703125q0.21875 -0.515625 0.21875 -1.453125q0 -1.171875 -0.171875 -1.703125q-0.15625 -0.546875 -0.65625 -0.765625q-0.5 -0.21875 -1.5625 -0.21875l-0.984375 0l0 5.046875l0.96875 0zm5.5487366 9.71875q1.109375 0 1.53125 -0.171875q0.421875 -0.15625 0.421875 -0.625q0 -0.21875 -0.40625 -1.984375l-2.171875 -9.171875l2.015625 0l1.453125 8.0625l1.40625 -8.0625l2.015625 0l-2.578125 11.375q-0.265625 1.140625 -1.109375 1.625q-0.828125 0.484375 -2.34375 0.484375l-0.234375 0l0 -1.53125zm10.344513 -1.015625q-2.328125 0 -2.328125 -2.578125l0 -7.03125l-1.140625 0l0 -1.328125l1.140625 0l0 -3.15625l2.0 0l0 3.15625l1.734375 0l0 1.328125l-1.734375 0l0 6.890625q0 0.65625 0.203125 0.921875q0.203125 0.265625 0.78125 0.265625q0.375 0 0.734375 -0.0625l0 1.46875q-0.75 0.125 -1.390625 0.125zm2.9336243 -15.265625l2.0 0l0 5.453125q1.34375 -1.28125 2.703125 -1.28125q0.875 0 1.234375 0.640625q0.375 0.640625 0.375 1.5625l0 8.734375l-2.0 0l0 -8.15625q0 -0.609375 -0.1875 -0.90625q-0.1875 -0.296875 -0.671875 -0.296875q-0.65625 0 -1.453125 0.703125l0 8.65625l-2.0 0l0 -15.109375zm11.208282 15.265625q-1.71875 0 -2.4375 -1.015625q-0.703125 -1.03125 -0.703125 -2.96875l0 -3.125q0 -1.953125 0.703125 -2.96875q0.71875 -1.015625 2.4375 -1.015625q1.703125 0 2.421875 1.015625q0.71875 1.015625 0.71875 2.96875l0 3.125q0 1.9375 -0.71875 2.96875q-0.71875 1.015625 -2.421875 1.015625zm0 -1.484375q0.546875 0 0.78125 -0.3125q0.25 -0.3125 0.296875 -0.78125q0.0625 -0.46875 0.0625 -1.265625l0 -3.390625q0 -0.796875 -0.0625 -1.265625q-0.046875 -0.484375 -0.296875 -0.796875q-0.234375 -0.3125 -0.78125 -0.3125q-0.53125 0 -0.796875 0.3125q-0.25 0.3125 -0.3125 0.796875q-0.046875 0.46875 -0.046875 1.265625l0 3.390625q0 0.796875 0.046875 1.265625q0.0625 0.46875 0.3125 0.78125q0.265625 0.3125 0.796875 0.3125zm4.960144 -9.453125l2.0 0l0 1.0625q1.296875 -1.21875 2.640625 -1.21875q0.875 0 1.234375 0.640625q0.375 0.640625 0.375 1.5625l0 8.734375l-1.984375 0l0 -8.15625q0 -0.609375 -0.1875 -0.90625q-0.1875 -0.296875 -0.671875 -0.296875q-0.59375 0 -1.40625 0.671875l0 8.6875l-2.0 0l0 -10.78125zm8.111969 4.40625l4.15625 0l0 1.5l-4.15625 0l0 -1.5zm6.144928 3.703125l3.84375 -2.796875l-3.84375 -2.765625l0 -2.015625l5.359375 3.796875l0 2.0l-5.359375 3.78125l0 -2.0zm7.3025208 -12.4375l2.0625 0l2.671875 12.25l2.6875 -12.25l2.046875 0l0.28125 15.109375l-1.6875 0l-0.171875 -10.96875l-2.5625 10.96875l-1.1875 0l-2.546875 -10.96875l-0.15625 10.96875l-1.71875 0l0.28125 -15.109375zm12.063141 0l5.859375 0l0 1.5625l-3.75 0l0 5.0l3.046875 0l0 1.5l-3.046875 0l0 5.53125l3.796875 0l0 1.515625l-5.90625 0l0 -15.109375zm7.5930786 0l2.109375 0l0 13.59375l3.859375 0l0 1.515625l-5.96875 0l0 -15.109375z" fill-rule="nonzero"/><path fill="#000000" d="m351.78436 183.1025q-1.265625 0 -1.953125 -0.515625q-0.6875 -0.515625 -0.953125 -1.4375q-0.25 -0.921875 -0.25 -2.34375l0 -2.484375q0 -1.453125 0.25 -2.375q0.265625 -0.9375 0.953125 -1.4375q0.6875 -0.5 1.953125 -0.5q1.15625 0 1.796875 0.375q0.65625 0.375 0.90625 1.109375q0.25 0.734375 0.25 1.921875l0 0.625l-1.8125 0l0 -0.65625q0 -1.0625 -0.234375 -1.46875q-0.234375 -0.421875 -0.890625 -0.421875q-0.5 0 -0.75 0.21875q-0.234375 0.21875 -0.328125 0.734375q-0.09375 0.5 -0.09375 1.46875l0 3.390625q0 0.9375 0.109375 1.4375q0.109375 0.484375 0.359375 0.6875q0.265625 0.1875 0.734375 0.1875q0.6875 0 0.890625 -0.453125q0.203125 -0.453125 0.203125 -1.40625l0 -0.875l1.8125 0l0 0.734375q0 1.765625 -0.65625 2.625q-0.640625 0.859375 -2.296875 0.859375zm7.6833496 0q-1.71875 0 -2.4375 -1.015625q-0.703125 -1.03125 -0.703125 -2.96875l0 -3.125q0 -1.953125 0.703125 -2.96875q0.71875 -1.015625 2.4375 -1.015625q1.703125 0 2.421875 1.015625q0.71875 1.015625 0.71875 2.96875l0 3.125q0 1.9375 -0.71875 2.96875q-0.71875 1.015625 -2.421875 1.015625zm0 -1.484375q0.546875 0 0.78125 -0.3125q0.25 -0.3125 0.296875 -0.78125q0.0625 -0.46875 0.0625 -1.265625l0 -3.390625q0 -0.796875 -0.0625 -1.265625q-0.046875 -0.484375 -0.296875 -0.796875q-0.234375 -0.3125 -0.78125 -0.3125q-0.53125 0 -0.796875 0.3125q-0.25 0.3125 -0.3125 0.796875q-0.046875 0.46875 -0.046875 1.265625l0 3.390625q0 0.796875 0.046875 1.265625q0.0625 0.46875 0.3125 0.78125q0.265625 0.3125 0.796875 0.3125zm4.960144 -9.453125l1.859375 0l0 1.03125q0.53125 -0.609375 1.171875 -0.90625q0.65625 -0.3125 1.359375 -0.3125q1.375 0 1.75 1.359375q1.125 -1.359375 2.6875 -1.359375q0.84375 0 1.375 0.625q0.53125 0.609375 0.53125 1.875l0 8.46875l-1.828125 0l0 -8.34375q0 -0.734375 -0.25 -1.015625q-0.234375 -0.296875 -0.6875 -0.296875q-0.40625 0 -0.859375 0.234375q-0.4375 0.21875 -0.8125 0.640625l0 0.3125l0 8.46875l-1.828125 0l0 -8.34375q0 -0.734375 -0.25 -1.015625q-0.234375 -0.296875 -0.6875 -0.296875q-0.390625 0 -0.84375 0.234375q-0.4375 0.21875 -0.828125 0.640625l0 8.78125l-1.859375 0l0 -10.78125zm12.686249 0l2.0 0l0 0.859375q0.875 -1.015625 2.0625 -1.015625q1.46875 0 1.953125 1.265625q0.5 1.265625 0.5 2.78125l0 2.625q0 1.96875 -0.609375 3.203125q-0.59375 1.21875 -2.078125 1.21875q-0.953125 0 -1.828125 -0.953125l0 4.34375l-2.0 0l0 -14.328125zm3.4375 9.359375q0.6875 0 0.875 -0.6875q0.203125 -0.703125 0.203125 -2.15625l0 -2.625q0 -1.1875 -0.21875 -1.828125q-0.21875 -0.640625 -0.9375 -0.640625q-0.6875 0 -1.359375 0.546875l0 6.90625q0.65625 0.484375 1.4375 0.484375zm5.023834 -13.0625l2.0 0l0 2.09375l-2.0 0l0 -2.09375zm0 3.703125l2.0 0l0 10.78125l-2.0 0l0 -10.78125zm4.319153 -4.328125l2.0 0l0 15.109375l-2.0 0l0 -15.109375zm7.084778 15.265625q-1.25 0 -1.953125 -0.46875q-0.6875 -0.484375 -0.96875 -1.421875q-0.28125 -0.9375 -0.28125 -2.421875l0 -2.46875q0 -2.234375 0.703125 -3.265625q0.703125 -1.046875 2.5 -1.046875q1.296875 0 1.953125 0.546875q0.671875 0.546875 0.875 1.53125q0.21875 0.96875 0.21875 2.625l0 0.875l-4.25 0l0 2.171875q0 0.984375 0.28125 1.421875q0.296875 0.4375 0.9375 0.4375q0.625 0 0.84375 -0.4375q0.234375 -0.4375 0.234375 -1.328125l0 -0.65625l1.9375 0l0 0.40625q0 1.703125 -0.734375 2.609375q-0.71875 0.890625 -2.296875 0.890625zm1.09375 -6.59375l0 -0.96875q0 -1.09375 -0.21875 -1.5625q-0.203125 -0.484375 -0.90625 -0.484375q-0.484375 0 -0.734375 0.21875q-0.25 0.21875 -0.34375 0.734375q-0.09375 0.515625 -0.09375 1.484375l0 0.578125l2.296875 0zm3.8230286 -4.34375l2.0 0l0 1.53125q0.5625 -0.921875 1.140625 -1.28125q0.59375 -0.375 1.25 -0.375q0.15625 0 0.3125 0.015625l0 2.203125q-0.59375 -0.234375 -1.09375 -0.234375q-0.5 0 -0.875 0.234375q-0.375 0.234375 -0.734375 0.8125l0 7.875l-2.0 0l0 -10.78125z" fill-rule="nonzero"/><g filter="url(#shadowFilter-p.3)"><use xlink:href="#p.3" transform="matrix(1.0 0.0 0.0 1.0 0.0 5.0)"/></g><defs><filter id="shadowFilter-p.3" filterUnits="userSpaceOnUse"><feGaussianBlur in="SourceAlpha" stdDeviation="2.0" result="blur"/><feComponentTransfer in="blur" color-interpolation-filters="sRGB"><feFuncR type="linear" slope="0" intercept="0.0"/><feFuncG type="linear" slope="0" intercept="0.0"/><feFuncB type="linear" slope="0" intercept="0.0"/><feFuncA type="linear" slope="0.5" intercept="0"/></feComponentTransfer></filter></defs><g id="p.3"><defs><linearGradient id="p.4" gradientUnits="userSpaceOnUse" gradientTransform="matrix(12.609207984019138 0.0 0.0 12.609207984019138 0.0 0.0)" spreadMethod="pad" x1="38.903265827675135" y1="17.38470404796141" x2="51.51247381169427" y2="17.38470404796141"><stop offset="0.0" stop-color="#b6d7a8"/><stop offset="0.36" stop-color="#c3ddce"/><stop offset="1.0" stop-color="#cfe2f3"/></linearGradient></defs><path fill="url(#p.4)" d="m490.53937 145.06067l0 0c0 -8.190216 6.639496 -14.829697 14.829681 -14.829697l129.33273 0c3.9331055 0 7.705078 1.5624084 10.486206 4.343521c2.781128 2.7810974 4.343506 6.5530853 4.343506 10.486176l0 59.316986c0 8.190216 -6.6394653 14.829697 -14.829712 14.829697l-129.33273 0c-8.190186 0 -14.829681 -6.6394806 -14.829681 -14.829697z" fill-rule="evenodd"/></g><path fill="#000000" fill-opacity="0.0" d="m500.4239 134.51968l138.39368 0l0 81.38583l-138.39368 0z" fill-rule="evenodd"/><path fill="#000000" d="m524.4673 146.3303l2.0625 0l2.671875 12.25l2.6875 -12.25l2.046875 0l0.28125 15.109375l-1.6875 0l-0.171875 -10.96875l-2.5625 10.96875l-1.1875 0l-2.546875 -10.96875l-0.15625 10.96875l-1.71875 0l0.28125 -15.109375zm12.06311 0l5.859375 0l0 1.5625l-3.75 0l0 5.0l3.046875 0l0 1.5l-3.046875 0l0 5.53125l3.796875 0l0 1.515625l-5.90625 0l0 -15.109375zm7.5930786 0l2.109375 0l0 13.59375l3.859375 0l0 1.515625l-5.96875 0l0 -15.109375zm11.678833 0l2.109375 0l0 13.59375l3.859375 0l0 1.515625l-5.96875 0l0 -15.109375zm9.187805 15.265625q-0.625 0 -1.125 -0.359375q-0.484375 -0.359375 -0.765625 -0.9375q-0.28125 -0.578125 -0.28125 -1.203125q0 -1.28125 0.53125 -2.0625q0.546875 -0.796875 1.390625 -1.265625q0.84375 -0.46875 2.328125 -1.0625l0 -0.765625q0 -1.0625 -0.21875 -1.5q-0.203125 -0.4375 -0.859375 -0.4375q-1.140625 0 -1.140625 1.53125l0 0.53125l-1.96875 -0.0625q0.03125 -1.796875 0.8125 -2.640625q0.78125 -0.859375 2.421875 -0.859375q1.5625 0 2.25 0.859375q0.703125 0.84375 0.703125 2.5625l0 4.921875q0 1.21875 0.1875 2.59375l-1.828125 0q-0.203125 -1.0625 -0.265625 -1.578125q-0.21875 0.71875 -0.765625 1.234375q-0.546875 0.5 -1.40625 0.5zm0.78125 -1.71875q0.390625 0 0.765625 -0.3125q0.375 -0.3125 0.53125 -0.59375l0 -3.046875q-0.796875 0.4375 -1.234375 0.765625q-0.4375 0.328125 -0.734375 0.765625q-0.28125 0.421875 -0.28125 1.015625q0 0.671875 0.234375 1.046875q0.25 0.359375 0.71875 0.359375zm6.775696 1.71875q-0.890625 0 -1.265625 -0.640625q-0.359375 -0.640625 -0.359375 -1.5625l0 -8.734375l1.984375 0l0 8.125q0 0.625 0.1875 0.9375q0.1875 0.296875 0.671875 0.296875q0.609375 0 1.40625 -0.671875l0 -8.6875l2.0 0l0 10.78125l-2.0 0l0 -1.0625q-1.28125 1.21875 -2.625 1.21875zm6.64624 -10.9375l2.0 0l0 1.0625q1.296875 -1.21875 2.640625 -1.21875q0.875 0 1.234375 0.640625q0.375 0.640625 0.375 1.5625l0 8.734375l-1.984375 0l0 -8.15625q0 -0.609375 -0.1875 -0.90625q-0.1875 -0.296875 -0.671875 -0.296875q-0.59375 0 -1.40625 0.671875l0 8.6875l-2.0 0l0 -10.78125zm11.143188 10.9375q-1.265625 0 -1.953125 -0.515625q-0.6875 -0.515625 -0.953125 -1.4375q-0.25 -0.921875 -0.25 -2.34375l0 -2.484375q0 -1.453125 0.25 -2.375q0.265625 -0.9375 0.953125 -1.4375q0.6875 -0.5 1.953125 -0.5q1.15625 0 1.796875 0.375q0.65625 0.375 0.90625 1.109375q0.25 0.734375 0.25 1.921875l0 0.625l-1.8125 0l0 -0.65625q0 -1.0625 -0.234375 -1.46875q-0.234375 -0.421875 -0.890625 -0.421875q-0.5 0 -0.75 0.21875q-0.234375 0.21875 -0.328125 0.734375q-0.09375 0.5 -0.09375 1.46875l0 3.390625q0 0.9375 0.109375 1.4375q0.109375 0.484375 0.359375 0.6875q0.265625 0.1875 0.734375 0.1875q0.6875 0 0.890625 -0.453125q0.203125 -0.453125 0.203125 -1.40625l0 -0.875l1.8125 0l0 0.734375q0 1.765625 -0.65625 2.625q-0.640625 0.859375 -2.296875 0.859375zm4.7770996 -15.265625l2.0 0l0 5.453125q1.34375 -1.28125 2.703125 -1.28125q0.875 0 1.234375 0.640625q0.375 0.640625 0.375 1.5625l0 8.734375l-2.0 0l0 -8.15625q0 -0.609375 -0.1875 -0.90625q-0.1875 -0.296875 -0.671875 -0.296875q-0.65625 0 -1.453125 0.703125l0 8.65625l-2.0 0l0 -15.109375zm11.239563 15.265625q-1.25 0 -1.953125 -0.46875q-0.6875 -0.484375 -0.96875 -1.421875q-0.28125 -0.9375 -0.28125 -2.421875l0 -2.46875q0 -2.234375 0.703125 -3.265625q0.703125 -1.046875 2.5 -1.046875q1.296875 0 1.953125 0.546875q0.671875 0.546875 0.875 1.53125q0.21875 0.96875 0.21875 2.625l0 0.875l-4.25 0l0 2.171875q0 0.984375 0.28125 1.421875q0.296875 0.4375 0.9375 0.4375q0.625 0 0.84375 -0.4375q0.234375 -0.4375 0.234375 -1.328125l0 -0.65625l1.9375 0l0 0.40625q0 1.703125 -0.734375 2.609375q-0.71875 0.890625 -2.296875 0.890625zm1.09375 -6.59375l0 -0.96875q0 -1.09375 -0.21875 -1.5625q-0.203125 -0.484375 -0.90625 -0.484375q-0.484375 0 -0.734375 0.21875q-0.25 0.21875 -0.34375 0.734375q-0.09375 0.515625 -0.09375 1.484375l0 0.578125l2.296875 0zm3.822998 -4.34375l2.0 0l0 1.53125q0.5625 -0.921875 1.140625 -1.28125q0.59375 -0.375 1.25 -0.375q0.15625 0 0.3125 0.015625l0 2.203125q-0.59375 -0.234375 -1.09375 -0.234375q-0.5 0 -0.875 0.234375q-0.375 0.234375 -0.734375 0.8125l0 7.875l-2.0 0l0 -10.78125z" fill-rule="nonzero"/><g filter="url(#shadowFilter-p.5)"><use xlink:href="#p.5" transform="matrix(1.0 0.0 0.0 1.0 0.0 5.0)"/></g><defs><filter id="shadowFilter-p.5" filterUnits="userSpaceOnUse"><feGaussianBlur in="SourceAlpha" stdDeviation="2.0" result="blur"/><feComponentTransfer in="blur" color-interpolation-filters="sRGB"><feFuncR type="linear" slope="0" intercept="0.0"/><feFuncG type="linear" slope="0" intercept="0.0"/><feFuncB type="linear" slope="0" intercept="0.0"/><feFuncA type="linear" slope="0.5" intercept="0"/></feComponentTransfer></filter></defs><g id="p.5"><path fill="#cfe2f3" d="m750.4895 71.72471l0 0c0 -8.190216 6.6394653 -14.829697 14.829712 -14.829697l129.3327 0c3.9331055 0 7.705078 1.5624123 10.486206 4.3435173c2.781067 2.7811089 4.343506 6.553097 4.343506 10.486179l0 59.316994c0 8.190216 -6.6394653 14.829681 -14.829712 14.829681l-129.3327 0c-8.190247 0 -14.829712 -6.6394653 -14.829712 -14.829681z" fill-rule="evenodd"/></g><path fill="#000000" fill-opacity="0.0" d="m760.374 61.183727l138.39368 0l0 81.38582l-138.39368 0z" fill-rule="evenodd"/><path fill="#000000" d="m786.5069 72.99435l2.0625 0l2.671875 12.25l2.6875 -12.25l2.046875 0l0.28125 15.109375l-1.6875 0l-0.171875 -10.96875l-2.5625 10.96875l-1.1875 0l-2.546875 -10.96875l-0.15625 10.96875l-1.71875 0l0.28125 -15.109375zm13.844421 15.265625q-0.625 0 -1.125 -0.359375q-0.484375 -0.359375 -0.765625 -0.9375q-0.28125 -0.578125 -0.28125 -1.203125q0 -1.28125 0.53125 -2.0625q0.546875 -0.796875 1.390625 -1.265625q0.84375 -0.46875 2.328125 -1.0625l0 -0.765625q0 -1.0625 -0.21875 -1.5q-0.203125 -0.4375 -0.859375 -0.4375q-1.140625 0 -1.140625 1.53125l0 0.53125l-1.96875 -0.0625q0.03125 -1.796875 0.8125 -2.640625q0.78125 -0.859375 2.421875 -0.859375q1.5625 0 2.25 0.859375q0.703125 0.84375 0.703125 2.5625l0 4.921875q0 1.21875 0.1875 2.59375l-1.828125 0q-0.203125 -1.0625 -0.265625 -1.578125q-0.21875 0.71875 -0.765625 1.234375q-0.546875 0.5 -1.40625 0.5zm0.78125 -1.71875q0.390625 0 0.765625 -0.3125q0.375 -0.3125 0.53125 -0.59375l0 -3.046875q-0.796875 0.4375 -1.234375 0.765625q-0.4375 0.328125 -0.734375 0.765625q-0.28125 0.421875 -0.28125 1.015625q0 0.671875 0.234375 1.046875q0.25 0.359375 0.71875 0.359375zm5.056946 2.734375q1.109375 0 1.53125 -0.171875q0.421875 -0.15625 0.421875 -0.625q0 -0.21875 -0.40625 -1.984375l-2.171875 -9.171875l2.015625 0l1.453125 8.0625l1.40625 -8.0625l2.015625 0l-2.578125 11.375q-0.265625 1.140625 -1.109375 1.625q-0.828125 0.484375 -2.34375 0.484375l-0.234375 0l0 -1.53125zm9.422607 -1.015625q-0.625 0 -1.125 -0.359375q-0.484375 -0.359375 -0.765625 -0.9375q-0.28125 -0.578125 -0.28125 -1.203125q0 -1.28125 0.53125 -2.0625q0.546875 -0.796875 1.390625 -1.265625q0.84375 -0.46875 2.328125 -1.0625l0 -0.765625q0 -1.0625 -0.21875 -1.5q-0.203125 -0.4375 -0.859375 -0.4375q-1.140625 0 -1.140625 1.53125l0 0.53125l-1.96875 -0.0625q0.03125 -1.796875 0.8125 -2.640625q0.78125 -0.859375 2.421875 -0.859375q1.5625 0 2.25 0.859375q0.703125 0.84375 0.703125 2.5625l0 4.921875q0 1.21875 0.1875 2.59375l-1.828125 0q-0.203125 -1.0625 -0.265625 -1.578125q-0.21875 0.71875 -0.765625 1.234375q-0.546875 0.5 -1.40625 0.5zm0.78125 -1.71875q0.390625 0 0.765625 -0.3125q0.375 -0.3125 0.53125 -0.59375l0 -3.046875q-0.796875 0.4375 -1.234375 0.765625q-0.4375 0.328125 -0.734375 0.765625q-0.28125 0.421875 -0.28125 1.015625q0 0.671875 0.234375 1.046875q0.25 0.359375 0.71875 0.359375zm11.985474 1.71875q-1.296875 0 -2.109375 -0.828125q-0.8125 -0.828125 -0.921875 -2.203125l1.65625 -0.5q0.15625 1.046875 0.515625 1.546875q0.359375 0.5 1.03125 0.5q0.53125 0 0.8125 -0.296875q0.296875 -0.3125 0.296875 -0.84375q0 -0.453125 -0.21875 -0.828125q-0.203125 -0.375 -0.65625 -0.765625l-1.859375 -1.59375q-0.625 -0.53125 -0.96875 -1.140625q-0.34375 -0.609375 -0.34375 -1.484375q0 -1.25 0.734375 -1.953125q0.75 -0.703125 2.03125 -0.703125q1.234375 0 1.9375 0.796875q0.703125 0.796875 0.8125 2.046875l-1.34375 0.5q-0.125 -0.90625 -0.4375 -1.375q-0.296875 -0.484375 -0.890625 -0.484375q-0.484375 0 -0.78125 0.3125q-0.28125 0.3125 -0.28125 0.78125q0 0.59375 0.546875 1.078125l1.90625 1.765625q0.71875 0.671875 1.125 1.328125q0.40625 0.640625 0.40625 1.578125q0 1.34375 -0.8125 2.0625q-0.796875 0.703125 -2.1875 0.703125zm7.477417 0q-1.25 0 -1.953125 -0.46875q-0.6875 -0.484375 -0.96875 -1.421875q-0.28125 -0.9375 -0.28125 -2.421875l0 -2.46875q0 -2.234375 0.703125 -3.265625q0.703125 -1.046875 2.5 -1.046875q1.296875 0 1.953125 0.546875q0.671875 0.546875 0.875 1.53125q0.21875 0.96875 0.21875 2.625l0 0.875l-4.25 0l0 2.171875q0 0.984375 0.28125 1.421875q0.296875 0.4375 0.9375 0.4375q0.625 0 0.84375 -0.4375q0.234375 -0.4375 0.234375 -1.328125l0 -0.65625l1.9375 0l0 0.40625q0 1.703125 -0.734375 2.609375q-0.71875 0.890625 -2.296875 0.890625zm1.09375 -6.59375l0 -0.96875q0 -1.09375 -0.21875 -1.5625q-0.203125 -0.484375 -0.90625 -0.484375q-0.484375 0 -0.734375 0.21875q-0.25 0.21875 -0.34375 0.734375q-0.09375 0.515625 -0.09375 1.484375l0 0.578125l2.296875 0zm6.260559 6.59375q-1.296875 0 -2.109375 -0.828125q-0.8125 -0.828125 -0.921875 -2.203125l1.65625 -0.5q0.15625 1.046875 0.515625 1.546875q0.359375 0.5 1.03125 0.5q0.53125 0 0.8125 -0.296875q0.296875 -0.3125 0.296875 -0.84375q0 -0.453125 -0.21875 -0.828125q-0.203125 -0.375 -0.65625 -0.765625l-1.859375 -1.59375q-0.625 -0.53125 -0.96875 -1.140625q-0.34375 -0.609375 -0.34375 -1.484375q0 -1.25 0.734375 -1.953125q0.75 -0.703125 2.03125 -0.703125q1.234375 0 1.9375 0.796875q0.703125 0.796875 0.8125 2.046875l-1.34375 0.5q-0.125 -0.90625 -0.4375 -1.375q-0.296875 -0.484375 -0.890625 -0.484375q-0.484375 0 -0.78125 0.3125q-0.28125 0.3125 -0.28125 0.78125q0 0.59375 0.546875 1.078125l1.90625 1.765625q0.71875 0.671875 1.125 1.328125q0.40625 0.640625 0.40625 1.578125q0 1.34375 -0.8125 2.0625q-0.796875 0.703125 -2.1875 0.703125zm6.977417 0q-1.296875 0 -2.109375 -0.828125q-0.8125 -0.828125 -0.921875 -2.203125l1.65625 -0.5q0.15625 1.046875 0.515625 1.546875q0.359375 0.5 1.03125 0.5q0.53125 0 0.8125 -0.296875q0.296875 -0.3125 0.296875 -0.84375q0 -0.453125 -0.21875 -0.828125q-0.203125 -0.375 -0.65625 -0.765625l-1.859375 -1.59375q-0.625 -0.53125 -0.96875 -1.140625q-0.34375 -0.609375 -0.34375 -1.484375q0 -1.25 0.734375 -1.953125q0.75 -0.703125 2.03125 -0.703125q1.234375 0 1.9375 0.796875q0.703125 0.796875 0.8125 2.046875l-1.34375 0.5q-0.125 -0.90625 -0.4375 -1.375q-0.296875 -0.484375 -0.890625 -0.484375q-0.484375 0 -0.78125 0.3125q-0.28125 0.3125 -0.28125 0.78125q0 0.59375 0.546875 1.078125l1.90625 1.765625q0.71875 0.671875 1.125 1.328125q0.40625 0.640625 0.40625 1.578125q0 1.34375 -0.8125 2.0625q-0.796875 0.703125 -2.1875 0.703125zm4.618042 -14.640625l2.0 0l0 2.09375l-2.0 0l0 -2.09375zm0 3.703125l2.0 0l0 10.78125l-2.0 0l0 -10.78125zm7.100403 10.9375q-1.71875 0 -2.4375 -1.015625q-0.703125 -1.03125 -0.703125 -2.96875l0 -3.125q0 -1.953125 0.703125 -2.96875q0.71875 -1.015625 2.4375 -1.015625q1.703125 0 2.421875 1.015625q0.71875 1.015625 0.71875 2.96875l0 3.125q0 1.9375 -0.71875 2.96875q-0.71875 1.015625 -2.421875 1.015625zm0 -1.484375q0.546875 0 0.78125 -0.3125q0.25 -0.3125 0.296875 -0.78125q0.0625 -0.46875 0.0625 -1.265625l0 -3.390625q0 -0.796875 -0.0625 -1.265625q-0.046875 -0.484375 -0.296875 -0.796875q-0.234375 -0.3125 -0.78125 -0.3125q-0.53125 0 -0.796875 0.3125q-0.25 0.3125 -0.3125 0.796875q-0.046875 0.46875 -0.046875 1.265625l0 3.390625q0 0.796875 0.046875 1.265625q0.0625 0.46875 0.3125 0.78125q0.265625 0.3125 0.796875 0.3125zm4.960144 -9.453125l2.0 0l0 1.0625q1.296875 -1.21875 2.640625 -1.21875q0.875 0 1.234375 0.640625q0.375 0.640625 0.375 1.5625l0 8.734375l-1.984375 0l0 -8.15625q0 -0.609375 -0.1875 -0.90625q-0.1875 -0.296875 -0.671875 -0.296875q-0.59375 0 -1.40625 0.671875l0 8.6875l-2.0 0l0 -10.78125z" fill-rule="nonzero"/><g filter="url(#shadowFilter-p.6)"><use xlink:href="#p.6" transform="matrix(1.0 0.0 0.0 1.0 0.0 5.0)"/></g><defs><filter id="shadowFilter-p.6" filterUnits="userSpaceOnUse"><feGaussianBlur in="SourceAlpha" stdDeviation="2.0" result="blur"/><feComponentTransfer in="blur" color-interpolation-filters="sRGB"><feFuncR type="linear" slope="0" intercept="0.0"/><feFuncG type="linear" slope="0" intercept="0.0"/><feFuncB type="linear" slope="0" intercept="0.0"/><feFuncA type="linear" slope="0.5" intercept="0"/></feComponentTransfer></filter></defs><g id="p.6"><path fill="#cfe2f3" d="m750.0748 212.61185l0 0c0 -8.190216 6.6394653 -14.829697 14.829651 -14.829697l129.33276 0c3.9330444 0 7.705078 1.5624084 10.486145 4.343521c2.781128 2.7810974 4.343567 6.5531006 4.343567 10.486176l0 59.316986c0 8.190216 -6.6395264 14.829712 -14.829712 14.829712l-129.33276 0c-8.190186 0 -14.829651 -6.639496 -14.829651 -14.829712z" fill-rule="evenodd"/></g><path fill="#000000" fill-opacity="0.0" d="m759.9593 202.07086l138.39374 0l0 81.38583l-138.39374 0z" fill-rule="evenodd"/><path fill="#000000" d="m788.0343 213.88148l2.109375 0l0 13.59375l3.859375 0l0 1.515625l-5.96875 0l0 -15.109375zm10.20343 15.265625q-1.71875 0 -2.4375 -1.015625q-0.703125 -1.03125 -0.703125 -2.96875l0 -3.125q0 -1.953125 0.703125 -2.96875q0.71875 -1.015625 2.4375 -1.015625q1.703125 0 2.421875 1.015625q0.71875 1.015625 0.71875 2.96875l0 3.125q0 1.9375 -0.71875 2.96875q-0.71875 1.015625 -2.421875 1.015625zm0 -1.484375q0.546875 0 0.78125 -0.3125q0.25 -0.3125 0.296875 -0.78125q0.0625 -0.46875 0.0625 -1.265625l0 -3.390625q0 -0.796875 -0.0625 -1.265625q-0.046875 -0.484375 -0.296875 -0.796875q-0.234375 -0.3125 -0.78125 -0.3125q-0.53125 0 -0.796875 0.3125q-0.25 0.3125 -0.3125 0.796875q-0.046875 0.46875 -0.046875 1.265625l0 3.390625q0 0.796875 0.046875 1.265625q0.0625 0.46875 0.3125 0.78125q0.265625 0.3125 0.796875 0.3125zm7.913269 1.484375q-1.265625 0 -1.953125 -0.515625q-0.6875 -0.515625 -0.953125 -1.4375q-0.25 -0.921875 -0.25 -2.34375l0 -2.484375q0 -1.453125 0.25 -2.375q0.265625 -0.9375 0.953125 -1.4375q0.6875 -0.5 1.953125 -0.5q1.15625 0 1.796875 0.375q0.65625 0.375 0.90625 1.109375q0.25 0.734375 0.25 1.921875l0 0.625l-1.8125 0l0 -0.65625q0 -1.0625 -0.234375 -1.46875q-0.234375 -0.421875 -0.890625 -0.421875q-0.5 0 -0.75 0.21875q-0.234375 0.21875 -0.328125 0.734375q-0.09375 0.5 -0.09375 1.46875l0 3.390625q0 0.9375 0.109375 1.4375q0.109375 0.484375 0.359375 0.6875q0.265625 0.1875 0.734375 0.1875q0.6875 0 0.890625 -0.453125q0.203125 -0.453125 0.203125 -1.40625l0 -0.875l1.8125 0l0 0.734375q0 1.765625 -0.65625 2.625q-0.640625 0.859375 -2.296875 0.859375zm6.6677246 0q-0.625 0 -1.125 -0.359375q-0.484375 -0.359375 -0.765625 -0.9375q-0.28125 -0.578125 -0.28125 -1.203125q0 -1.28125 0.53125 -2.0625q0.546875 -0.796875 1.390625 -1.265625q0.84375 -0.46875 2.328125 -1.0625l0 -0.765625q0 -1.0625 -0.21875 -1.5q-0.203125 -0.4375 -0.859375 -0.4375q-1.140625 0 -1.140625 1.53125l0 0.53125l-1.96875 -0.0625q0.03125 -1.796875 0.8125 -2.640625q0.78125 -0.859375 2.421875 -0.859375q1.5625 0 2.25 0.859375q0.703125 0.84375 0.703125 2.5625l0 4.921875q0 1.21875 0.1875 2.59375l-1.828125 0q-0.203125 -1.0625 -0.265625 -1.578125q-0.21875 0.71875 -0.765625 1.234375q-0.546875 0.5 -1.40625 0.5zm0.78125 -1.71875q0.390625 0 0.765625 -0.3125q0.375 -0.3125 0.53125 -0.59375l0 -3.046875q-0.796875 0.4375 -1.234375 0.765625q-0.4375 0.328125 -0.734375 0.765625q-0.28125 0.421875 -0.28125 1.015625q0 0.671875 0.234375 1.046875q0.25 0.359375 0.71875 0.359375zm5.400696 -13.546875l2.0 0l0 15.109375l-2.0 0l0 -15.109375zm7.9508057 13.765625l3.3125 -7.953125l-2.96875 0l0 -1.484375l5.109375 0l0 1.078125l-3.328125 8.1875l3.25 0l0 1.515625l-5.375 0l0 -1.34375zm7.02063 -13.140625l2.0 0l0 2.09375l-2.0 0l0 -2.09375zm0 3.703125l2.0 0l0 10.78125l-2.0 0l0 -10.78125zm4.131653 0l2.0 0l0 0.859375q0.875 -1.015625 2.0625 -1.015625q1.46875 0 1.953125 1.265625q0.5 1.265625 0.5 2.78125l0 2.625q0 1.96875 -0.609375 3.203125q-0.59375 1.21875 -2.078125 1.21875q-0.953125 0 -1.828125 -0.953125l0 4.34375l-2.0 0l0 -14.328125zm3.4375 9.359375q0.6875 0 0.875 -0.6875q0.203125 -0.703125 0.203125 -2.15625l0 -2.625q0 -1.1875 -0.21875 -1.828125q-0.21875 -0.640625 -0.9375 -0.640625q-0.6875 0 -1.359375 0.546875l0 6.90625q0.65625 0.484375 1.4375 0.484375zm9.796082 -7.890625l-1.28125 0l0 -1.46875l1.28125 0l0 -0.5625q0 -1.125 0.171875 -1.796875q0.171875 -0.6875 0.671875 -1.0625q0.515625 -0.375 1.484375 -0.375q0.65625 0 1.3125 0.140625l0 1.453125q-0.375 -0.09375 -0.75 -0.09375q-0.53125 0 -0.71875 0.34375q-0.171875 0.34375 -0.171875 1.0625l0 0.890625l1.640625 0l0 1.46875l-1.640625 0l0 9.3125l-2.0 0l0 -9.3125zm4.854309 -5.171875l2.0 0l0 2.09375l-2.0 0l0 -2.09375zm0 3.703125l2.0 0l0 10.78125l-2.0 0l0 -10.78125zm4.319153 -4.328125l2.0 0l0 15.109375l-2.0 0l0 -15.109375zm7.084778 15.265625q-1.25 0 -1.953125 -0.46875q-0.6875 -0.484375 -0.96875 -1.421875q-0.28125 -0.9375 -0.28125 -2.421875l0 -2.46875q0 -2.234375 0.703125 -3.265625q0.703125 -1.046875 2.5 -1.046875q1.296875 0 1.953125 0.546875q0.671875 0.546875 0.875 1.53125q0.21875 0.96875 0.21875 2.625l0 0.875l-4.25 0l0 2.171875q0 0.984375 0.28125 1.421875q0.296875 0.4375 0.9375 0.4375q0.625 0 0.84375 -0.4375q0.234375 -0.4375 0.234375 -1.328125l0 -0.65625l1.9375 0l0 0.40625q0 1.703125 -0.734375 2.609375q-0.71875 0.890625 -2.296875 0.890625zm1.09375 -6.59375l0 -0.96875q0 -1.09375 -0.21875 -1.5625q-0.203125 -0.484375 -0.90625 -0.484375q-0.484375 0 -0.734375 0.21875q-0.25 0.21875 -0.34375 0.734375q-0.09375 0.515625 -0.09375 1.484375l0 0.578125l2.296875 0z" fill-rule="nonzero"/><path fill="#000000" fill-opacity="0.0" d="m201.0958 234.27034c22.771652 0 34.157486 -14.015747 45.54332 -28.031494c11.3858185 -14.015747 22.771652 -28.031494 45.54329 -28.031494" fill-rule="evenodd"/><path stroke="#6aa84f" stroke-width="4.0" stroke-linejoin="round" stroke-linecap="butt" d="m201.0958 234.27034c22.771652 0 34.157486 -14.015747 45.54332 -28.031494c5.6929016 -7.0078735 11.3858185 -14.015747 18.501968 -19.271652c0.88949585 -0.6569977 1.8012695 -1.2866058 2.738037 -1.8854218c0.2341919 -0.14970398 0.4699707 -0.29748535 0.7073059 -0.44328308l0.40698242 -0.2448883" fill-rule="evenodd"/><path fill="#6aa84f" stroke="#6aa84f" stroke-width="4.0" stroke-linecap="butt" d="m270.6964 190.77728l15.835999 -11.062653l-19.242004 -1.7046967z" fill-rule="evenodd"/><g filter="url(#shadowFilter-p.7)"><use xlink:href="#p.7" transform="matrix(1.0 0.0 0.0 1.0 0.0 6.0)"/></g><defs><filter id="shadowFilter-p.7" filterUnits="userSpaceOnUse"><feGaussianBlur in="SourceAlpha" stdDeviation="2.0" result="blur"/><feComponentTransfer in="blur" color-interpolation-filters="sRGB"><feFuncR type="linear" slope="0" intercept="0.0"/><feFuncG type="linear" slope="0" intercept="0.0"/><feFuncB type="linear" slope="0" intercept="0.0"/><feFuncA type="linear" slope="0.5" intercept="0"/></feComponentTransfer></filter></defs><g id="p.7"><path fill="#b6d7a8" d="m58.51837 91.51998l0 0c0 -8.190216 6.6394806 -14.829689 14.829697 -14.829689l129.33273 0c3.9330902 0 7.705078 1.5624084 10.486176 4.3435135c2.7811127 2.781105 4.343521 6.553093 4.343521 10.486176l0 59.316994c0 8.190216 -6.6394806 14.829697 -14.829697 14.829697l-129.33273 0c-8.190216 0 -14.829697 -6.6394806 -14.829697 -14.829697z" fill-rule="evenodd"/></g><g filter="url(#shadowFilter-p.8)"><use xlink:href="#p.8" transform="matrix(1.0 0.0 0.0 1.0 0.0 6.0)"/></g><defs><filter id="shadowFilter-p.8" filterUnits="userSpaceOnUse"><feGaussianBlur in="SourceAlpha" stdDeviation="2.0" result="blur"/><feComponentTransfer in="blur" color-interpolation-filters="sRGB"><feFuncR type="linear" slope="0" intercept="0.0"/><feFuncG type="linear" slope="0" intercept="0.0"/><feFuncB type="linear" slope="0" intercept="0.0"/><feFuncA type="linear" slope="0.5" intercept="0"/></feComponentTransfer></filter></defs><g id="p.8"><path fill="#b6d7a8" d="m50.51837 83.51998l0 0c0 -8.190216 6.6394806 -14.829689 14.829697 -14.829689l129.33273 0c3.9330902 0 7.705078 1.5624084 10.486176 4.3435135c2.7811127 2.781105 4.343521 6.553093 4.343521 10.486176l0 59.316994c0 8.190216 -6.6394806 14.829697 -14.829697 14.829697l-129.33273 0c-8.190216 0 -14.829697 -6.6394806 -14.829697 -14.829697z" fill-rule="evenodd"/></g><path fill="#000000" fill-opacity="0.0" d="m198.79659 102.46457c22.771652 0 34.157486 14.015747 45.543304 28.031494c11.385834 14.015747 22.771652 28.031494 45.54332 28.031494" fill-rule="evenodd"/><path stroke="#6aa84f" stroke-width="4.0" stroke-linejoin="round" stroke-linecap="butt" d="m198.79659 102.46457c22.771652 0 34.157486 14.015747 45.543304 28.031494c5.692917 7.0078735 11.385834 14.015747 18.501968 19.271652c0.88952637 0.6569824 1.8012695 1.2866058 2.738037 1.8854218c0.2341919 0.14970398 0.4699707 0.29748535 0.7073364 0.44328308l0.4069519 0.2448883" fill-rule="evenodd"/><path fill="#6aa84f" stroke="#6aa84f" stroke-width="4.0" stroke-linecap="butt" d="m264.99118 158.72498l19.242004 -1.7046967l-15.835999 -11.062653z" fill-rule="evenodd"/><g filter="url(#shadowFilter-p.9)"><use xlink:href="#p.9" transform="matrix(1.0 0.0 0.0 1.0 0.0 6.0)"/></g><defs><filter id="shadowFilter-p.9" filterUnits="userSpaceOnUse"><feGaussianBlur in="SourceAlpha" stdDeviation="2.0" result="blur"/><feComponentTransfer in="blur" color-interpolation-filters="sRGB"><feFuncR type="linear" slope="0" intercept="0.0"/><feFuncG type="linear" slope="0" intercept="0.0"/><feFuncB type="linear" slope="0" intercept="0.0"/><feFuncA type="linear" slope="0.5" intercept="0"/></feComponentTransfer></filter></defs><g id="p.9"><path fill="#b6d7a8" d="m42.103676 76.01342l0 0c0 -8.190216 6.639477 -14.829693 14.829693 -14.829693l129.33275 0c3.933075 0 7.705063 1.5624084 10.486176 4.3435173c2.7810974 2.781105 4.343506 6.553093 4.343506 10.486176l0 59.316994c0 8.190216 -6.6394806 14.829697 -14.829681 14.829697l-129.33275 0c-8.190216 0 -14.829693 -6.6394806 -14.829693 -14.829697z" fill-rule="evenodd"/></g><path fill="#000000" fill-opacity="0.0" d="m52.402885 64.979004l138.3937 0l0 81.38582l-138.3937 0z" fill-rule="evenodd"/><path fill="#000000" d="m73.20196 76.78963l3.75 0q1.96875 0 2.84375 1.0625q0.890625 1.0625 0.890625 3.109375q0 1.859375 -0.953125 2.890625q-0.953125 1.015625 -2.765625 1.015625l-1.65625 0l0 7.03125l-2.109375 0l0 -15.109375zm3.078125 6.5625q0.9375 0 1.453125 -0.203125q0.515625 -0.203125 0.734375 -0.703125q0.21875 -0.515625 0.21875 -1.453125q0 -1.171875 -0.171875 -1.703125q-0.15625 -0.546875 -0.65625 -0.765625q-0.5 -0.21875 -1.5625 -0.21875l-0.984375 0l0 5.046875l0.96875 0zm5.548752 9.71875q1.109375 0 1.53125 -0.171875q0.421875 -0.15625 0.421875 -0.625q0 -0.21875 -0.40625 -1.984375l-2.171875 -9.171875l2.015625 0l1.453125 8.0625l1.40625 -8.0625l2.015625 0l-2.578125 11.375q-0.265625 1.140625 -1.109375 1.625q-0.828125 0.484375 -2.34375 0.484375l-0.234375 0l0 -1.53125zm10.344498 -1.015625q-2.328125 0 -2.328125 -2.578125l0 -7.03125l-1.140625 0l0 -1.328125l1.140625 0l0 -3.15625l2.0 0l0 3.15625l1.734375 0l0 1.328125l-1.734375 0l0 6.890625q0 0.65625 0.203125 0.921875q0.203125 0.265625 0.78125 0.265625q0.375 0 0.734375 -0.0625l0 1.46875q-0.75 0.125 -1.390625 0.125zm2.9336243 -15.265625l2.0 0l0 5.453125q1.34375 -1.28125 2.703125 -1.28125q0.875 0 1.234375 0.640625q0.375 0.640625 0.375 1.5625l0 8.734375l-2.0 0l0 -8.15625q0 -0.609375 -0.1875 -0.90625q-0.1875 -0.296875 -0.671875 -0.296875q-0.65625 0 -1.453125 0.703125l0 8.65625l-2.0 0l0 -15.109375zm11.208282 15.265625q-1.71875 0 -2.4375 -1.015625q-0.703125 -1.03125 -0.703125 -2.96875l0 -3.125q0 -1.953125 0.703125 -2.96875q0.71875 -1.015625 2.4375 -1.015625q1.703125 0 2.421875 1.015625q0.71875 1.015625 0.71875 2.96875l0 3.125q0 1.9375 -0.71875 2.96875q-0.71875 1.015625 -2.421875 1.015625zm0 -1.484375q0.546875 0 0.78125 -0.3125q0.25 -0.3125 0.296875 -0.78125q0.0625 -0.46875 0.0625 -1.265625l0 -3.390625q0 -0.796875 -0.0625 -1.265625q-0.046875 -0.484375 -0.296875 -0.796875q-0.234375 -0.3125 -0.78125 -0.3125q-0.53125 0 -0.796875 0.3125q-0.25 0.3125 -0.3125 0.796875q-0.046875 0.46875 -0.046875 1.265625l0 3.390625q0 0.796875 0.046875 1.265625q0.0625 0.46875 0.3125 0.78125q0.265625 0.3125 0.796875 0.3125zm4.9601593 -9.453125l2.0 0l0 1.0625q1.296875 -1.21875 2.640625 -1.21875q0.875 0 1.234375 0.640625q0.375 0.640625 0.375 1.5625l0 8.734375l-1.984375 0l0 -8.15625q0 -0.609375 -0.1875 -0.90625q-0.1875 -0.296875 -0.671875 -0.296875q-0.59375 0 -1.40625 0.671875l0 8.6875l-2.0 0l0 -10.78125zm15.337372 10.9375q-2.328125 0 -2.328125 -2.578125l0 -7.03125l-1.140625 0l0 -1.328125l1.140625 0l0 -3.15625l2.0 0l0 3.15625l1.7343826 0l0 1.328125l-1.7343826 0l0 6.890625q0 0.65625 0.203125 0.921875q0.203125 0.265625 0.78125 0.265625q0.375 0 0.7343826 -0.0625l0 1.46875q-0.7500076 0.125 -1.3906326 0.125zm5.839882 0q-1.71875 0 -2.4375 -1.015625q-0.703125 -1.03125 -0.703125 -2.96875l0 -3.125q0 -1.953125 0.703125 -2.96875q0.71875 -1.015625 2.4375 -1.015625q1.703125 0 2.421875 1.015625q0.71875 1.015625 0.71875 2.96875l0 3.125q0 1.9375 -0.71875 2.96875q-0.71875 1.015625 -2.421875 1.015625zm0 -1.484375q0.546875 0 0.78125 -0.3125q0.25 -0.3125 0.296875 -0.78125q0.0625 -0.46875 0.0625 -1.265625l0 -3.390625q0 -0.796875 -0.0625 -1.265625q-0.046875 -0.484375 -0.296875 -0.796875q-0.234375 -0.3125 -0.78125 -0.3125q-0.53125 0 -0.796875 0.3125q-0.25 0.3125 -0.3125 0.796875q-0.046875 0.46875 -0.046875 1.265625l0 3.390625q0 0.796875 0.046875 1.265625q0.0625 0.46875 0.3125 0.78125q0.265625 0.3125 0.796875 0.3125zm7.9289093 1.484375q-1.71875 0 -2.4375 -1.015625q-0.703125 -1.03125 -0.703125 -2.96875l0 -3.125q0 -1.953125 0.703125 -2.96875q0.71875 -1.015625 2.4375 -1.015625q1.703125 0 2.421875 1.015625q0.71875 1.015625 0.71875 2.96875l0 3.125q0 1.9375 -0.71875 2.96875q-0.71875 1.015625 -2.421875 1.015625zm0 -1.484375q0.546875 0 0.78125 -0.3125q0.25 -0.3125 0.296875 -0.78125q0.0625 -0.46875 0.0625 -1.265625l0 -3.390625q0 -0.796875 -0.0625 -1.265625q-0.046875 -0.484375 -0.296875 -0.796875q-0.234375 -0.3125 -0.78125 -0.3125q-0.53125 0 -0.796875 0.3125q-0.25 0.3125 -0.3125 0.796875q-0.046875 0.46875 -0.046875 1.265625l0 3.390625q0 0.796875 0.046875 1.265625q0.0625 0.46875 0.3125 0.78125q0.265625 0.3125 0.796875 0.3125zm5.1476593 -13.78125l2.0 0l0 15.109375l-2.0 0l0 -15.109375zm6.584778 15.265625q-1.296875 0 -2.109375 -0.828125q-0.8125 -0.828125 -0.921875 -2.203125l1.65625 -0.5q0.15625 1.046875 0.515625 1.546875q0.359375 0.5 1.03125 0.5q0.53125 0 0.8125 -0.296875q0.296875 -0.3125 0.296875 -0.84375q0 -0.453125 -0.21875 -0.828125q-0.203125 -0.375 -0.65625 -0.765625l-1.859375 -1.59375q-0.625 -0.53125 -0.96875 -1.140625q-0.34375 -0.609375 -0.34375 -1.484375q0 -1.25 0.734375 -1.953125q0.75 -0.703125 2.03125 -0.703125q1.234375 0 1.9375 0.796875q0.703125 0.796875 0.8125 2.046875l-1.34375 0.5q-0.125 -0.90625 -0.4375 -1.375q-0.296875 -0.484375 -0.890625 -0.484375q-0.484375 0 -0.78125 0.3125q-0.28125 0.3125 -0.28125 0.78125q0 0.59375 0.546875 1.078125l1.90625 1.765625q0.71875 0.671875 1.125 1.328125q0.40625 0.640625 0.40625 1.578125q0 1.34375 -0.8125 2.0625q-0.796875 0.703125 -2.1875 0.703125zm12.09346 0.015625q-1.53125 0 -2.40625 -0.9375q-0.859375 -0.953125 -0.859375 -2.46875q0 -1.3125 0.578125 -2.359375q0.59375 -1.0625 1.625 -2.0l-0.40625 -0.765625q-0.59375 -1.078125 -0.921875 -1.875q-0.3125 -0.796875 -0.3125 -1.671875q0 -1.5 0.859375 -2.40625q0.875 -0.921875 2.375 -0.921875q1.390625 0 2.296875 0.75q0.90625 0.75 0.90625 2.046875q0 1.3125 -0.8125 2.546875q-0.8125 1.21875 -2.015625 2.390625l2.265625 3.578125q0.546875 -1.046875 0.75 -3.015625l1.984375 0q0 1.046875 -0.453125 2.25q-0.4375 1.203125 -1.015625 2.015625q0.265625 0.34375 0.65625 0.5625q0.390625 0.203125 0.828125 0.203125l0 2.0625l-0.265625 0q-0.5 0 -0.921875 -0.21875q-0.421875 -0.234375 -0.6875 -0.46875q-0.25 -0.234375 -0.796875 -0.78125q-0.546875 0.671875 -1.375 1.078125q-0.8125 0.40625 -1.875 0.40625zm0.203125 -8.75q0.640625 -0.75 1.078125 -1.8125q0.453125 -1.0625 0.453125 -2.046875q0 -0.546875 -0.328125 -0.84375q-0.328125 -0.3125 -0.875 -0.3125q-0.640625 0 -0.9375 0.5q-0.296875 0.484375 -0.296875 1.1875q0 0.78125 0.234375 1.578125q0.25 0.796875 0.671875 1.75zm-0.203125 7.078125q1.140625 0 2.03125 -1.109375l-2.3125 -3.5625q-0.4375 0.578125 -0.71875 1.359375q-0.265625 0.78125 -0.265625 1.578125q0 0.75 0.296875 1.25q0.296875 0.484375 0.96875 0.484375z" fill-rule="nonzero"/><path fill="#000000" d="m94.83085 98.78963l2.0 0l0 15.109375l-2.0 0l0 -15.109375zm4.225403 0.625l2.0 0l0 2.09375l-2.0 0l0 -2.09375zm0 3.703125l2.0 0l0 10.78125l-2.0 0l0 -10.78125zm8.006653 10.9375q-0.96875 0 -1.828125 -0.9375l0 0.78125l-2.0 0l0 -15.109375l2.0 0l0 5.1875q0.875 -1.015625 2.03125 -1.015625q1.46875 0 1.953125 1.265625q0.5 1.265625 0.5 2.78125l0 2.625q0 4.421875 -2.65625 4.421875zm-0.421875 -1.578125q0.703125 0 0.890625 -0.6875q0.203125 -0.703125 0.203125 -2.15625l0 -2.625q0 -1.1875 -0.234375 -1.828125q-0.21875 -0.640625 -0.921875 -0.640625q-0.65625 0 -1.34375 0.53125l0 6.921875q0.609375 0.484375 1.40625 0.484375zm4.948715 -9.359375l2.0 0l0 1.53125q0.5625 -0.921875 1.140625 -1.28125q0.59375 -0.375 1.25 -0.375q0.15625 0 0.3125 0.015625l0 2.203125q-0.59375 -0.234375 -1.09375 -0.234375q-0.5 0 -0.875 0.234375q-0.375 0.234375 -0.734375 0.8125l0 7.875l-2.0 0l0 -10.78125zm7.8792877 10.9375q-0.625 0 -1.125 -0.359375q-0.484375 -0.359375 -0.765625 -0.9375q-0.28125 -0.578125 -0.28125 -1.203125q0 -1.28125 0.53125 -2.0625q0.546875 -0.796875 1.390625 -1.265625q0.84375 -0.46875 2.328125 -1.0625l0 -0.765625q0 -1.0625 -0.21875 -1.5q-0.203125 -0.4375 -0.859375 -0.4375q-1.140625 0 -1.140625 1.53125l0 0.53125l-1.96875 -0.0625q0.03125 -1.796875 0.8125 -2.640625q0.78125 -0.859375 2.421875 -0.859375q1.5625 0 2.25 0.859375q0.703125 0.84375 0.703125 2.5625l0 4.921875q0 1.21875 0.1875 2.59375l-1.828125 0q-0.203125 -1.0625 -0.265625 -1.578125q-0.21875 0.71875 -0.765625 1.234375q-0.546875 0.5 -1.40625 0.5zm0.78125 -1.71875q0.390625 0 0.765625 -0.3125q0.375 -0.3125 0.53125 -0.59375l0 -3.046875q-0.796875 0.4375 -1.234375 0.765625q-0.4375 0.328125 -0.734375 0.765625q-0.28125 0.421875 -0.28125 1.015625q0 0.671875 0.234375 1.046875q0.25 0.359375 0.71875 0.359375zm5.275696 -9.21875l2.0 0l0 1.53125q0.5625076 -0.921875 1.1406326 -1.28125q0.59375 -0.375 1.25 -0.375q0.15625 0 0.3125 0.015625l0 2.203125q-0.59375 -0.234375 -1.09375 -0.234375q-0.5 0 -0.875 0.234375q-0.37500763 0.234375 -0.7343826 0.8125l0 7.875l-2.0 0l0 -10.78125zm6.0667953 -3.703125l2.0 0l0 2.09375l-2.0 0l0 -2.09375zm0 3.703125l2.0 0l0 10.78125l-2.0 0l0 -10.78125zm7.131653 10.9375q-1.25 0 -1.953125 -0.46875q-0.6875 -0.484375 -0.96875 -1.421875q-0.28125 -0.9375 -0.28125 -2.421875l0 -2.46875q0 -2.234375 0.703125 -3.265625q0.703125 -1.046875 2.5 -1.046875q1.296875 0 1.953125 0.546875q0.671875 0.546875 0.875 1.53125q0.21875 0.96875 0.21875 2.625l0 0.875l-4.25 0l0 2.171875q0 0.984375 0.28125 1.421875q0.296875 0.4375 0.9375 0.4375q0.625 0 0.84375 -0.4375q0.234375 -0.4375 0.234375 -1.328125l0 -0.65625l1.9375 0l0 0.40625q0 1.703125 -0.734375 2.609375q-0.71875 0.890625 -2.296875 0.890625zm1.09375 -6.59375l0 -0.96875q0 -1.09375 -0.21875 -1.5625q-0.203125 -0.484375 -0.90625 -0.484375q-0.484375 0 -0.734375 0.21875q-0.25 0.21875 -0.34375 0.734375q-0.09375 0.515625 -0.09375 1.484375l0 0.578125l2.296875 0zm6.2605286 6.59375q-1.296875 0 -2.109375 -0.828125q-0.8125 -0.828125 -0.921875 -2.203125l1.65625 -0.5q0.15625 1.046875 0.515625 1.546875q0.359375 0.5 1.03125 0.5q0.53125 0 0.8125 -0.296875q0.296875 -0.3125 0.296875 -0.84375q0 -0.453125 -0.21875 -0.828125q-0.203125 -0.375 -0.65625 -0.765625l-1.859375 -1.59375q-0.625 -0.53125 -0.96875 -1.140625q-0.34375 -0.609375 -0.34375 -1.484375q0 -1.25 0.734375 -1.953125q0.75 -0.703125 2.03125 -0.703125q1.234375 0 1.9375 0.796875q0.703125 0.796875 0.8125 2.046875l-1.34375 0.5q-0.125 -0.90625 -0.4375 -1.375q-0.296875 -0.484375 -0.890625 -0.484375q-0.484375 0 -0.78125 0.3125q-0.28125 0.3125 -0.28125 0.78125q0 0.59375 0.546875 1.078125l1.90625 1.765625q0.71875 0.671875 1.125 1.328125q0.40625 0.640625 0.40625 1.578125q0 1.34375 -0.8125 2.0625q-0.796875 0.703125 -2.1875 0.703125z" fill-rule="nonzero"/></g></svg>